<svg width="96" height="96" viewBox="0 0 96 96" fill="none" xmlns="http://www.w3.org/2000/svg">
  <rect width="96" height="96" rx="24" fill="#17110C"/>
  <path d="M25 29C25 22.925 35.297 18 48 18C60.703 18 71 22.925 71 29V68C71 74.075 60.703 79 48 79C35.297 79 25 74.075 25 68V29Z" fill="#A45D2B"/>
  <path d="M25 30C25 36.075 35.297 41 48 41C60.703 41 71 36.075 71 30" stroke="#F0A85A" stroke-width="5" stroke-linecap="round"/>
  <path d="M27 36H69" stroke="#2E3440" stroke-width="8" stroke-linecap="round"/>
  <path d="M27 65H69" stroke="#2E3440" stroke-width="8" stroke-linecap="round"/>
  <path d="M38 46C38 43.791 39.791 42 42 42H58C60.209 42 62 43.791 62 46V58C62 60.209 60.209 62 58 62H42C39.791 62 38 60.209 38 58V46Z" fill="#F8D9A6"/>
  <path d="M47 48.5L56 52L47 55.5V48.5Z" fill="#5C2F17" stroke="#5C2F17" stroke-width="3" stroke-linejoin="round"/>
  <path d="M33 27C36 24.5 41 23 48 23C55 23 60 24.5 63 27" stroke="#6E391D" stroke-width="5" stroke-linecap="round"/>
</svg>
